<svg width="32" height="32" viewBox="0 0 32 32" fill="none" xmlns="http://www.w3.org/2000/svg">
<g clip-path="url(#clip0)">
<path d="M16 0.000244141C24.8374 0.000244141 32 7.16432 32 16.0002C32 24.8376 24.8374 32.0002 16 32.0002C7.16407 32.0002 0 24.8369 0 16.0002C0 7.16432 7.16407 0.000244141 16 0.000244141Z" fill="#380A66"/>
<path d="M10.896 7.00806H17.52C18.16 7.00806 18.792 7.08806 19.416 7.24806C20.04 7.39206 20.592 7.64006 21.072 7.99206C21.568 8.32806 21.968 8.76806 22.272 9.31206C22.576 9.85606 22.728 10.5121 22.728 11.2801C22.728 12.2401 22.456 13.0321 21.912 13.6561C21.368 14.2801 20.656 14.7281 19.776 15.0001V15.0481C20.304 15.1121 20.792 15.2641 21.24 15.5041C21.704 15.7281 22.096 16.0241 22.416 16.3921C22.736 16.7441 22.984 17.1601 23.16 17.6401C23.352 18.1041 23.448 18.6081 23.448 19.1521C23.448 20.0801 23.264 20.8561 22.896 21.4801C22.528 22.0881 22.04 22.5841 21.432 22.9681C20.84 23.3361 20.152 23.6001 19.368 23.7601C18.6 23.9201 17.816 24.0001 17.016 24.0001H10.896V7.00806ZM13.92 13.9201H16.68C17.688 13.9201 18.44 13.7281 18.936 13.3441C19.448 12.9441 19.704 12.4241 19.704 11.7841C19.704 11.0481 19.44 10.5041 18.912 10.1521C18.4 9.78406 17.568 9.60006 16.416 9.60006H13.92V13.9201ZM13.92 21.4081H16.704C17.088 21.4081 17.496 21.3841 17.928 21.3361C18.376 21.2881 18.784 21.1761 19.152 21.0001C19.52 20.8241 19.824 20.5761 20.064 20.2561C20.304 19.9201 20.424 19.4721 20.424 18.9121C20.424 18.0161 20.128 17.3921 19.536 17.0401C18.96 16.6881 18.056 16.5121 16.824 16.5121H13.92V21.4081Z" fill="#E673E6"/>
<path d="M8 14.0001H12V17.0001H8V14.0001Z" fill="#E673E6"/>
</g>
<defs>
<clipPath id="clip0">
<rect width="32" height="32" fill="white" transform="translate(0 0.000244141)"/>
</clipPath>
</defs>
</svg>
