<svg width="32" height="33" viewBox="0 0 32 33" fill="none" xmlns="http://www.w3.org/2000/svg">
<g clip-path="url(#clip0)">
<path d="M16 0.200134C24.8374 0.200134 32 7.36421 32 16.2001C32 25.0375 24.8374 32.2001 16 32.2001C7.16407 32.2001 0 25.0368 0 16.2001C0 7.36421 7.16407 0.200134 16 0.200134Z" fill="#F5AC37"/>
<path d="M16.5922 17.3298H22.6719C22.8015 17.3298 22.8627 17.3298 22.8721 17.1599C22.9218 16.5414 22.9218 15.9193 22.8721 15.3001C22.8721 15.1799 22.8123 15.1302 22.682 15.1302H10.5823C10.4325 15.1302 10.3922 15.1799 10.3922 15.3203V17.1002C10.3922 17.3298 10.3922 17.3298 10.632 17.3298H16.5922ZM22.1931 13.0501C22.2104 13.0048 22.2104 12.9551 22.1931 12.9104C22.0916 12.6894 21.9714 12.4784 21.8317 12.2804C21.6214 11.942 21.3738 11.6303 21.0915 11.3502C20.9583 11.181 20.8042 11.0291 20.6314 10.9002C19.766 10.1636 18.7371 9.64232 17.6312 9.38024C17.0732 9.25495 16.5029 9.19519 15.9312 9.20023H10.5614C10.4117 9.20023 10.3915 9.25999 10.3915 9.39032V12.94C10.3915 13.0897 10.3915 13.13 10.5816 13.13H22.1211C22.1211 13.13 22.2212 13.1099 22.2414 13.0501H22.1924H22.1931ZM22.1931 19.4099C22.0232 19.3912 21.8519 19.3912 21.6819 19.4099H10.5924C10.4426 19.4099 10.3922 19.4099 10.3922 19.6101V23.0805C10.3922 23.2404 10.3922 23.2807 10.5924 23.2807H15.7124C15.9572 23.2994 16.202 23.2821 16.4417 23.231C17.1848 23.1777 17.9156 23.0165 18.6125 22.7508C18.866 22.6629 19.1108 22.5484 19.3419 22.4109H19.4117C20.612 21.7867 21.5869 20.806 22.2018 19.6022C22.2018 19.6022 22.2716 19.451 22.1931 19.4114V19.4099ZM8.38268 25.08V25.0202V22.6903V21.9004V19.5503C8.38268 19.42 8.38268 19.4006 8.22284 19.4006H6.05273C5.93249 19.4006 5.88281 19.4006 5.88281 19.2407V17.3406H8.20268C8.33228 17.3406 8.38268 17.3406 8.38268 17.1707V15.2908C8.38268 15.1705 8.38268 15.141 8.22284 15.141H6.05273C5.93249 15.141 5.88281 15.141 5.88281 14.9812V13.2215C5.88281 13.1113 5.88281 13.0818 6.04265 13.0818H8.1926C8.34236 13.0818 8.38268 13.0818 8.38268 12.8917V7.50174C8.38268 7.3419 8.38268 7.30157 8.58284 7.30157H16.0824C16.6268 7.32317 17.1675 7.38294 17.7025 7.48158C18.8048 7.68534 19.8639 8.07918 20.8323 8.64151C21.4746 9.01951 22.0657 9.476 22.592 10.0016C22.988 10.4127 23.3451 10.8577 23.662 11.3315C23.9766 11.8117 24.238 12.3251 24.4432 12.8615C24.4684 13.0012 24.6023 13.0955 24.742 13.0717H26.5319C26.7616 13.0717 26.7616 13.0717 26.7717 13.292V14.9322C26.7717 15.0921 26.7119 15.1324 26.5513 15.1324H25.1711C25.0314 15.1324 24.9911 15.1324 25.0012 15.3124C25.0559 15.9215 25.0559 16.5328 25.0012 17.1419C25.0012 17.3118 25.0012 17.332 25.192 17.332H26.7709C26.8408 17.422 26.7709 17.512 26.7709 17.6027C26.781 17.7186 26.781 17.836 26.7709 17.9519V19.1623C26.7709 19.3322 26.7213 19.3826 26.5708 19.3826H24.6808C24.549 19.3574 24.4208 19.4416 24.3906 19.5727C23.9406 20.7427 23.2206 21.7917 22.2903 22.6327C21.9505 22.9387 21.5934 23.2267 21.2204 23.4924C20.8201 23.7228 20.4306 23.9625 20.0202 24.1526C19.2649 24.4925 18.4729 24.743 17.66 24.9021C16.8881 25.0404 16.1055 25.103 15.3199 25.0922H8.3798V25.0822L8.38268 25.08Z" fill="#FEFEFD"/>
</g>
<defs>
<clipPath id="clip0">
<rect width="32" height="32" fill="white" transform="translate(0 0.200134)"/>
</clipPath>
</defs>
</svg>
