<svg width="12" height="24" viewBox="0 0 12 24" fill="none" xmlns="http://www.w3.org/2000/svg">
<path d="M9.1272 7.37947C8.81911 6.93724 8.40318 6.61701 7.87943 6.41877C7.37108 6.20528 6.83192 6.09853 6.26195 6.09853C5.92305 6.09853 5.59185 6.13666 5.26836 6.2129C4.96027 6.28915 4.67528 6.41114 4.41341 6.57889C4.16693 6.74663 3.96667 6.96774 3.81263 7.24223C3.65858 7.50147 3.58156 7.81408 3.58156 8.18006C3.58156 8.72903 3.77412 9.14839 4.15923 9.43812C4.54434 9.72786 5.02188 9.97947 5.59185 10.193C6.16182 10.4065 6.78571 10.6123 7.46351 10.8106C8.14131 11.0088 8.76519 11.2833 9.33516 11.634C9.90513 11.9848 10.3827 12.4499 10.7678 13.0293C11.1529 13.6088 11.3455 14.3789 11.3455 15.3396C11.3455 16.2088 11.1837 16.9713 10.8602 17.627C10.5367 18.2674 10.0977 18.8012 9.54312 19.2282C9.00396 19.6551 8.37238 19.9754 7.64836 20.1889C6.92435 20.4023 6.16182 20.5091 5.36079 20.5091C4.34408 20.5091 3.3659 20.3413 2.42622 20.0059C1.48654 19.6704 0.6778 19.1062 0 18.3132L2.19515 16.2088C2.54945 16.7425 3.01159 17.1619 3.58156 17.4669C4.16693 17.7566 4.78311 17.9015 5.43011 17.9015C5.76901 17.9015 6.10791 17.8557 6.44681 17.7642C6.78571 17.6727 7.0938 17.5355 7.37108 17.3525C7.64836 17.1695 7.87173 16.9408 8.04118 16.6663C8.21063 16.3765 8.29535 16.0487 8.29535 15.6827C8.29535 15.088 8.1028 14.6305 7.71768 14.3103C7.33257 13.99 6.85503 13.7232 6.28506 13.5097C5.71509 13.2809 5.09121 13.0674 4.41341 12.8692C3.73561 12.671 3.11172 12.4041 2.54175 12.0686C1.97178 11.7179 1.49424 11.2604 1.10913 10.6962C0.724014 10.1167 0.531457 9.34663 0.531457 8.38592C0.531457 7.54721 0.700907 6.82287 1.03981 6.2129C1.39411 5.60293 1.84855 5.09971 2.40311 4.70323C2.97308 4.29149 3.62007 3.98651 4.34408 3.78827C5.0681 3.59003 5.80752 3.49091 6.56234 3.49091C7.425 3.49091 8.25684 3.62053 9.05788 3.87976C9.87432 4.139 10.606 4.56598 11.253 5.1607L9.1272 7.37947Z" fill="#7C7980"/>
<path d="M4.8 20.0727H6.98182V24H4.8V20.0727Z" fill="#7C7980"/>
<path d="M4.8 0H6.98182V3.92727H4.8V0Z" fill="#7C7980"/>
</svg>
