<svg width="281" height="34" viewBox="0 0 281 34" fill="none" xmlns="http://www.w3.org/2000/svg">
<path d="M16.2917 0.791687C18.5695 0.791687 20.7084 1.18752 22.7084 1.97919C24.7084 2.77086 26.4514 3.90975 27.9376 5.39586L23.1667 9.56254C22.3334 8.56254 21.3056 7.7917 20.0834 7.25003C18.875 6.69448 17.5278 6.4167 16.0417 6.4167C14.1389 6.4167 12.4653 6.86114 11.0209 7.75003C9.5903 8.62504 8.47918 9.86115 7.68752 11.4584C6.89585 13.0556 6.50001 14.9167 6.50001 17.0417C6.50001 19.1667 6.89585 21.0278 7.68752 22.6251C8.47918 24.2084 9.5903 25.4445 11.0209 26.3334C12.4653 27.2223 14.1389 27.6667 16.0417 27.6667C18.375 27.6667 20.3473 27.014 21.9584 25.7084C23.5834 24.389 24.6737 22.6181 25.2292 20.3959H16V14.7709H31.0417L31.2084 15.9167C31.2501 16.2917 31.2848 16.6737 31.3126 17.0626C31.3403 17.4514 31.3542 17.8612 31.3542 18.2917C31.3542 20.4584 30.9792 22.4584 30.2292 24.2917C29.4792 26.1112 28.4167 27.6945 27.0417 29.0417C25.6806 30.389 24.0695 31.4376 22.2084 32.1876C20.3612 32.9237 18.3334 33.2917 16.125 33.2917C13.8195 33.2917 11.6875 32.889 9.72919 32.0834C7.77085 31.264 6.06251 30.1251 4.60418 28.6667C3.15973 27.2084 2.03473 25.4931 1.22917 23.5209C0.437503 21.5348 0.0416687 19.3751 0.0416687 17.0417C0.0416687 14.6945 0.444447 12.5348 1.25 10.5625C2.05556 8.57642 3.18751 6.8542 4.64584 5.39586C6.10418 3.93753 7.81946 2.80558 9.79169 2.00002C11.7778 1.19447 13.9445 0.791687 16.2917 0.791687ZM32.7917 17.0417C32.7917 14.6945 33.1945 12.5348 34.0001 10.5625C34.8056 8.57642 35.9376 6.8542 37.3959 5.39586C38.8542 3.93753 40.5695 2.80558 42.5417 2.00002C44.5279 1.19447 46.6945 0.791687 49.0418 0.791687C51.389 0.791687 53.5487 1.19447 55.5209 2.00002C57.5071 2.80558 59.2293 3.93753 60.6876 5.39586C62.146 6.8542 63.2779 8.57642 64.0835 10.5625C64.889 12.5348 65.2918 14.6945 65.2918 17.0417C65.2918 19.3889 64.889 21.5556 64.0835 23.5417C63.2779 25.514 62.146 27.2292 60.6876 28.6876C59.2293 30.1459 57.5071 31.2779 55.5209 32.0834C53.5487 32.889 51.389 33.2917 49.0418 33.2917C46.6945 33.2917 44.5279 32.889 42.5417 32.0834C40.5695 31.2779 38.8542 30.1459 37.3959 28.6876C35.9376 27.2292 34.8056 25.514 34.0001 23.5417C33.1945 21.5556 32.7917 19.3889 32.7917 17.0417ZM39.2501 17.0417C39.2501 19.0834 39.6737 20.9028 40.5209 22.5001C41.3681 24.0973 42.5279 25.3612 44.0001 26.2917C45.4723 27.2084 47.1529 27.6667 49.0418 27.6667C50.9307 27.6667 52.6112 27.2084 54.0834 26.2917C55.5557 25.3612 56.7154 24.0973 57.5626 22.5001C58.4098 20.9028 58.8334 19.0834 58.8334 17.0417C58.8334 15 58.4098 13.1806 57.5626 11.5834C56.7154 9.97226 55.5557 8.70837 54.0834 7.7917C52.6112 6.87503 50.9307 6.4167 49.0418 6.4167C47.1529 6.4167 45.4723 6.87503 44.0001 7.7917C42.5279 8.70837 41.3681 9.97226 40.5209 11.5834C39.6737 13.1806 39.2501 15 39.2501 17.0417ZM88.0418 32.6667H68.3751V1.41669H74.7501V27.0417H88.0418V32.6667ZM101.584 32.7084H91.7502V1.45836H101.584C107.722 1.45836 112.438 2.81947 115.729 5.5417C119.021 8.25003 120.667 12.0834 120.667 17.0417C120.667 22.0139 119.021 25.8681 115.729 28.6042C112.438 31.3404 107.722 32.7084 101.584 32.7084ZM101.729 27.0834C105.757 27.0834 108.84 26.2084 110.979 24.4584C113.132 22.6945 114.209 20.2223 114.209 17.0417C114.209 13.875 113.132 11.4237 110.979 9.68754C108.84 7.95142 105.757 7.08337 101.729 7.08337H98.1252V27.0834H101.729Z" fill="#FFD040"/>
<path d="M124.375 30.6876C124.375 29.9931 124.597 29.4237 125.042 28.9792C125.5 28.5209 126.07 28.2917 126.75 28.2917C127.445 28.2917 128.021 28.5209 128.479 28.9792C128.938 29.4237 129.167 29.9931 129.167 30.6876C129.167 31.3681 128.938 31.9376 128.479 32.3959C128.021 32.8542 127.445 33.0834 126.75 33.0834C126.07 33.0834 125.5 32.8542 125.042 32.3959C124.597 31.9376 124.375 31.3681 124.375 30.6876ZM135.167 1.41669H153.084V4.75003H138.813V15.1459H152.292V18.4792H138.813V32.6667H135.167V1.41669ZM156.542 3.81253C156.542 3.11808 156.764 2.54864 157.209 2.10419C157.667 1.64586 158.236 1.41669 158.917 1.41669C159.611 1.41669 160.188 1.64586 160.646 2.10419C161.104 2.54864 161.334 3.11808 161.334 3.81253C161.334 4.49308 161.104 5.06253 160.646 5.52086C160.188 5.9792 159.611 6.20836 158.917 6.20836C158.236 6.20836 157.667 5.9792 157.209 5.52086C156.764 5.06253 156.542 4.49308 156.542 3.81253ZM157.209 32.6667V11.8334H160.667V32.6667H157.209ZM166.667 32.6667V11.8334H169.771L169.959 15C170.778 13.875 171.785 13 172.98 12.375C174.174 11.7362 175.507 11.4167 176.98 11.4167C178.66 11.4167 180.146 11.8264 181.438 12.6459C182.743 13.4514 183.764 14.5695 184.5 16C185.25 17.4306 185.625 19.0695 185.625 20.9167V32.6667H182.188V21.3334C182.188 19.3056 181.639 17.6667 180.542 16.4167C179.459 15.1667 178.042 14.5417 176.292 14.5417C175.111 14.5417 174.056 14.8334 173.125 15.4167C172.195 15.9862 171.459 16.7639 170.917 17.7501C170.375 18.7362 170.104 19.8612 170.104 21.1251V32.6667H166.667ZM190.542 26.4584C190.542 24.3751 191.348 22.7223 192.959 21.5001C194.584 20.2639 196.771 19.6459 199.521 19.6459C201.382 19.6459 203.209 19.9306 205 20.5001V20.2501C205 18.4723 204.487 17.0764 203.459 16.0625C202.445 15.0487 201.049 14.5417 199.271 14.5417C197.48 14.5417 195.535 15.1389 193.438 16.3334L192.188 13.4584C193.591 12.7223 194.861 12.2014 196 11.8959C197.139 11.5764 198.361 11.4167 199.667 11.4167C202.334 11.4167 204.459 12.2292 206.042 13.8542C207.639 15.4792 208.438 17.6528 208.438 20.3751V32.6667H205.334L205.146 29.5834C204.452 30.6806 203.507 31.5417 202.313 32.1667C201.118 32.7779 199.736 33.0834 198.167 33.0834C195.903 33.0834 194.063 32.4723 192.646 31.2501C191.243 30.0279 190.542 28.4306 190.542 26.4584ZM199.834 22.7709C198.028 22.7709 196.618 23.0973 195.605 23.7501C194.591 24.389 194.084 25.2917 194.084 26.4584C194.084 27.514 194.486 28.3612 195.292 29.0001C196.111 29.639 197.195 29.9584 198.542 29.9584C199.764 29.9584 200.862 29.7015 201.834 29.1876C202.806 28.6737 203.577 27.9792 204.146 27.1042C204.716 26.2292 205 25.2501 205 24.1667V23.6042C203.306 23.0487 201.584 22.7709 199.834 22.7709ZM214.042 32.6667V11.8334H217.146L217.334 15C218.153 13.875 219.16 13 220.355 12.375C221.549 11.7362 222.882 11.4167 224.355 11.4167C226.035 11.4167 227.521 11.8264 228.813 12.6459C230.118 13.4514 231.139 14.5695 231.875 16C232.625 17.4306 233 19.0695 233 20.9167V32.6667H229.563V21.3334C229.563 19.3056 229.014 17.6667 227.917 16.4167C226.834 15.1667 225.417 14.5417 223.667 14.5417C222.487 14.5417 221.431 14.8334 220.5 15.4167C219.57 15.9862 218.834 16.7639 218.292 17.7501C217.75 18.7362 217.48 19.8612 217.48 21.1251V32.6667H214.042ZM255.73 30.0001C254.757 30.9723 253.612 31.7292 252.292 32.2709C250.973 32.8126 249.528 33.0834 247.959 33.0834C245.875 33.0834 244.014 32.6181 242.375 31.6876C240.75 30.7431 239.466 29.4584 238.521 27.8334C237.591 26.1945 237.125 24.3334 237.125 22.2501C237.125 20.1667 237.591 18.3126 238.521 16.6876C239.466 15.0487 240.75 13.7639 242.375 12.8334C244.014 11.8889 245.875 11.4167 247.959 11.4167C249.528 11.4167 250.973 11.6875 252.292 12.2292C253.612 12.7709 254.757 13.5209 255.73 14.4792L253.334 16.8751C252.681 16.1389 251.896 15.5695 250.98 15.1667C250.063 14.75 249.056 14.5417 247.959 14.5417C246.556 14.5417 245.306 14.875 244.209 15.5417C243.112 16.2084 242.244 17.1251 241.605 18.2917C240.98 19.4445 240.667 20.7639 240.667 22.2501C240.667 23.7223 240.98 25.0417 241.605 26.2084C242.244 27.3751 243.112 28.2917 244.209 28.9584C245.306 29.6251 246.556 29.9584 247.959 29.9584C249.056 29.9584 250.063 29.7501 250.98 29.3334C251.896 28.9167 252.681 28.3473 253.334 27.6251L255.73 30.0001ZM280.126 22.2292V23.6251H262.459C262.806 25.4723 263.695 26.9931 265.126 28.1876C266.57 29.3681 268.306 29.9584 270.334 29.9584C271.459 29.9584 272.646 29.7431 273.896 29.3126C275.146 28.8681 276.285 28.1598 277.313 27.1876L279.334 29.7709C277.82 31.0348 276.306 31.9029 274.792 32.3751C273.292 32.8473 271.841 33.0834 270.438 33.0834C268.188 33.0834 266.188 32.6181 264.438 31.6876C262.688 30.7431 261.313 29.4445 260.313 27.7917C259.327 26.139 258.834 24.257 258.834 22.1459C258.834 20.0903 259.299 18.257 260.23 16.6459C261.16 15.0209 262.438 13.7431 264.063 12.8125C265.688 11.882 267.528 11.4167 269.584 11.4167C271.639 11.4167 273.459 11.882 275.042 12.8125C276.626 13.7431 277.869 15.0209 278.771 16.6459C279.674 18.2709 280.126 20.132 280.126 22.2292ZM262.417 20.7084H276.542C276.237 18.8889 275.452 17.4098 274.188 16.2709C272.924 15.1181 271.382 14.5417 269.563 14.5417C267.716 14.5417 266.139 15.125 264.834 16.2917C263.528 17.4445 262.723 18.9167 262.417 20.7084Z" fill="white"/>
</svg>
