<svg width="108" height="108" viewBox="0 0 108 108" fill="none" xmlns="http://www.w3.org/2000/svg">
<g filter="url(#filter0_ddd)">
<circle cx="54" cy="40" r="32" fill="#E673E6"/>
</g>
<path d="M30.8889 40L37.482 32.1335L27.3729 30.357L30.8889 40ZM33.1093 32.4234C33.7158 30.751 34.5241 29.1488 35.5229 27.654L34.0448 26.6663C32.9661 28.2807 32.0931 30.0111 31.438 31.8173L33.1093 32.4234ZM35.5229 27.654C37.9647 23.9996 41.4354 21.1513 45.4959 19.4693L44.8156 17.8269C40.4302 19.6434 36.6819 22.7195 34.0448 26.6663L35.5229 27.654ZM45.4959 19.4693C49.5565 17.7874 54.0247 17.3473 58.3354 18.2048L58.6822 16.4612C54.0266 15.5351 49.201 16.0104 44.8156 17.8269L45.4959 19.4693ZM58.3354 18.2048C62.6461 19.0622 66.6057 21.1787 69.7135 24.2865L70.9706 23.0294C67.6141 19.673 63.3377 17.3872 58.6822 16.4612L58.3354 18.2048ZM69.7135 24.2865C72.8213 27.3944 74.9378 31.354 75.7952 35.6647L77.5389 35.3178C76.6128 30.6623 74.327 26.3859 70.9706 23.0294L69.7135 24.2865ZM75.7952 35.6647C76.6527 39.9754 76.2126 44.4435 74.5307 48.5041L76.1731 49.1844C77.9896 44.799 78.4649 39.9734 77.5389 35.3178L75.7952 35.6647ZM74.5307 48.5041C72.8487 52.5647 70.0005 56.0353 66.346 58.4771L67.3337 59.9553C71.2805 57.3181 74.3566 53.5698 76.1731 49.1844L74.5307 48.5041ZM66.346 58.4771C62.6916 60.9189 58.3952 62.2222 54 62.2222V64C58.7468 64 63.3869 62.5924 67.3337 59.9553L66.346 58.4771Z" fill="white"/>
<circle cx="54.0001" cy="40" r="14.2222" stroke="white" stroke-width="1.77778"/>
<path d="M56.7798 35.8929C56.506 35.4998 56.1362 35.2151 55.6707 35.0389C55.2188 34.8491 54.7396 34.7543 54.2329 34.7543C53.9317 34.7543 53.6373 34.7881 53.3497 34.8559C53.0759 34.9237 52.8226 35.0321 52.5898 35.1812C52.3707 35.3303 52.1927 35.5269 52.0558 35.7709C51.9188 36.0013 51.8504 36.2792 51.8504 36.6045C51.8504 37.0925 52.0215 37.4652 52.3638 37.7228C52.7062 37.9803 53.1306 38.204 53.6373 38.3937C54.1439 38.5835 54.6985 38.7665 55.301 38.9427C55.9035 39.1189 56.458 39.3629 56.9647 39.6747C57.4713 39.9864 57.8958 40.3999 58.2381 40.915C58.5804 41.43 58.7516 42.1146 58.7516 42.9685C58.7516 43.7412 58.6078 44.4189 58.3203 45.0018C58.0327 45.5711 57.6425 46.0455 57.1495 46.425C56.6703 46.8046 56.1089 47.0892 55.4653 47.279C54.8217 47.4688 54.1439 47.5636 53.4319 47.5636C52.5282 47.5636 51.6587 47.4145 50.8234 47.1163C49.9881 46.8181 49.2692 46.3166 48.6667 45.6117L50.618 43.7412C50.9329 44.2156 51.3437 44.5883 51.8504 44.8594C52.3707 45.117 52.9184 45.2458 53.4935 45.2458C53.7948 45.2458 54.096 45.2051 54.3972 45.1238C54.6985 45.0424 54.9723 44.9204 55.2188 44.7578C55.4653 44.5951 55.6638 44.3918 55.8145 44.1478C55.9651 43.8903 56.0404 43.5988 56.0404 43.2735C56.0404 42.7449 55.8692 42.3382 55.5269 42.0536C55.1846 41.7689 54.7601 41.5317 54.2535 41.3419C53.7468 41.1386 53.1923 40.9488 52.5898 40.7726C51.9873 40.5964 51.4327 40.3592 50.9261 40.061C50.4194 39.7492 49.995 39.3426 49.6526 38.8411C49.3103 38.326 49.1392 37.6414 49.1392 36.7875C49.1392 36.042 49.2898 35.3981 49.591 34.8559C49.906 34.3137 50.3099 33.8664 50.8028 33.514C51.3095 33.148 51.8846 32.8769 52.5282 32.7007C53.1717 32.5245 53.829 32.4364 54.4999 32.4364C55.2667 32.4364 56.0062 32.5516 56.7182 32.782C57.4439 33.0124 58.0943 33.392 58.6694 33.9206L56.7798 35.8929Z" fill="white"/>
<path d="M52.9334 47.1758H54.8728V50.6667H52.9334V47.1758Z" fill="white"/>
<path d="M52.9334 29.3333H54.8728V32.8242H52.9334V29.3333Z" fill="white"/>
<defs>
<filter id="filter0_ddd" x="0.666666" y="0.888888" width="106.667" height="106.667" filterUnits="userSpaceOnUse" color-interpolation-filters="sRGB">
<feFlood flood-opacity="0" result="BackgroundImageFix"/>
<feColorMatrix in="SourceAlpha" type="matrix" values="0 0 0 0 0 0 0 0 0 0 0 0 0 0 0 0 0 0 127 0"/>
<feOffset/>
<feGaussianBlur stdDeviation="0.444444"/>
<feColorMatrix type="matrix" values="0 0 0 0 0 0 0 0 0 0 0 0 0 0 0 0 0 0 0.04 0"/>
<feBlend mode="normal" in2="BackgroundImageFix" result="effect1_dropShadow"/>
<feColorMatrix in="SourceAlpha" type="matrix" values="0 0 0 0 0 0 0 0 0 0 0 0 0 0 0 0 0 0 127 0"/>
<feOffset dy="1.77778"/>
<feGaussianBlur stdDeviation="2.66667"/>
<feColorMatrix type="matrix" values="0 0 0 0 0.9 0 0 0 0 0.45 0 0 0 0 0.9 0 0 0 0.12 0"/>
<feBlend mode="normal" in2="effect1_dropShadow" result="effect2_dropShadow"/>
<feColorMatrix in="SourceAlpha" type="matrix" values="0 0 0 0 0 0 0 0 0 0 0 0 0 0 0 0 0 0 127 0"/>
<feOffset dy="14.2222"/>
<feGaussianBlur stdDeviation="10.6667"/>
<feColorMatrix type="matrix" values="0 0 0 0 0.9 0 0 0 0 0.45 0 0 0 0 0.9 0 0 0 0.2 0"/>
<feBlend mode="normal" in2="effect2_dropShadow" result="effect3_dropShadow"/>
<feBlend mode="normal" in="SourceGraphic" in2="effect3_dropShadow" result="shape"/>
</filter>
</defs>
</svg>
