<svg width="545" height="96" viewBox="0 0 545 96" fill="none" xmlns="http://www.w3.org/2000/svg">
<path d="M0 48L25.5 46.5L48 24V0L0 48Z" fill="#FFD040"/>
<path d="M25.5 49.5L0 48L48 96L46.5 70.5L25.5 49.5Z" fill="#FFD040"/>
<path d="M49.5 70.5L48 96L96 48L70.5 49.5L49.5 70.5Z" fill="#FFD040"/>
<path d="M70.5 46.5L96 48L60 12V24L48 36V60L66 42L70.5 46.5Z" fill="#FFD040"/>
<path d="M145.938 22.1875C149.354 22.1875 152.562 22.7812 155.562 23.9688C158.562 25.1562 161.177 26.8646 163.406 29.0938L156.25 35.3438C155 33.8438 153.458 32.6875 151.625 31.875C149.812 31.0417 147.792 30.625 145.562 30.625C142.708 30.625 140.198 31.2917 138.031 32.625C135.885 33.9375 134.219 35.7917 133.031 38.1875C131.844 40.5833 131.25 43.375 131.25 46.5625C131.25 49.75 131.844 52.5417 133.031 54.9375C134.219 57.3125 135.885 59.1667 138.031 60.5C140.198 61.8333 142.708 62.5 145.562 62.5C149.062 62.5 152.021 61.5208 154.438 59.5625C156.875 57.5833 158.51 54.9271 159.344 51.5938H145.5V43.1562H168.062L168.312 44.875C168.375 45.4375 168.427 46.0104 168.469 46.5938C168.51 47.1771 168.531 47.7917 168.531 48.4375C168.531 51.6875 167.969 54.6875 166.844 57.4375C165.719 60.1667 164.125 62.5417 162.062 64.5625C160.021 66.5833 157.604 68.1562 154.812 69.2812C152.042 70.3854 149 70.9375 145.688 70.9375C142.229 70.9375 139.031 70.3333 136.094 69.125C133.156 67.8958 130.594 66.1875 128.406 64C126.24 61.8125 124.552 59.2396 123.344 56.2812C122.156 53.3021 121.562 50.0625 121.562 46.5625C121.562 43.0417 122.167 39.8021 123.375 36.8438C124.583 33.8646 126.281 31.2812 128.469 29.0938C130.656 26.9062 133.229 25.2083 136.188 24C139.167 22.7917 142.417 22.1875 145.938 22.1875ZM170.688 46.5625C170.688 43.0417 171.292 39.8021 172.5 36.8438C173.708 33.8646 175.406 31.2812 177.594 29.0938C179.781 26.9062 182.354 25.2083 185.312 24C188.292 22.7917 191.542 22.1875 195.062 22.1875C198.583 22.1875 201.823 22.7917 204.781 24C207.76 25.2083 210.344 26.9062 212.531 29.0938C214.719 31.2812 216.417 33.8646 217.625 36.8438C218.833 39.8021 219.438 43.0417 219.438 46.5625C219.438 50.0833 218.833 53.3333 217.625 56.3125C216.417 59.2708 214.719 61.8438 212.531 64.0312C210.344 66.2188 207.76 67.9167 204.781 69.125C201.823 70.3333 198.583 70.9375 195.062 70.9375C191.542 70.9375 188.292 70.3333 185.312 69.125C182.354 67.9167 179.781 66.2188 177.594 64.0312C175.406 61.8438 173.708 59.2708 172.5 56.3125C171.292 53.3333 170.688 50.0833 170.688 46.5625ZM180.375 46.5625C180.375 49.625 181.01 52.3542 182.281 54.75C183.552 57.1458 185.292 59.0417 187.5 60.4375C189.708 61.8125 192.229 62.5 195.062 62.5C197.896 62.5 200.417 61.8125 202.625 60.4375C204.833 59.0417 206.573 57.1458 207.844 54.75C209.115 52.3542 209.75 49.625 209.75 46.5625C209.75 43.5 209.115 40.7708 207.844 38.375C206.573 35.9583 204.833 34.0625 202.625 32.6875C200.417 31.3125 197.896 30.625 195.062 30.625C192.229 30.625 189.708 31.3125 187.5 32.6875C185.292 34.0625 183.552 35.9583 182.281 38.375C181.01 40.7708 180.375 43.5 180.375 46.5625ZM253.562 70H224.062V23.125H233.625V61.5625H253.562V70ZM273.875 70.0625H259.125V23.1875H273.875C283.083 23.1875 290.156 25.2292 295.094 29.3125C300.031 33.375 302.5 39.125 302.5 46.5625C302.5 54.0208 300.031 59.8021 295.094 63.9062C290.156 68.0104 283.083 70.0625 273.875 70.0625ZM274.094 61.625C280.135 61.625 284.76 60.3125 287.969 57.6875C291.198 55.0417 292.812 51.3333 292.812 46.5625C292.812 41.8125 291.198 38.1354 287.969 35.5312C284.76 32.9271 280.135 31.625 274.094 31.625H268.688V61.625H274.094Z" fill="#FFD040"/>
<path d="M308.062 67.0312C308.062 65.9896 308.396 65.1354 309.062 64.4688C309.75 63.7812 310.604 63.4375 311.625 63.4375C312.667 63.4375 313.531 63.7812 314.219 64.4688C314.906 65.1354 315.25 65.9896 315.25 67.0312C315.25 68.0521 314.906 68.9062 314.219 69.5938C313.531 70.2812 312.667 70.625 311.625 70.625C310.604 70.625 309.75 70.2812 309.062 69.5938C308.396 68.9062 308.062 68.0521 308.062 67.0312ZM324.25 23.125H351.125V28.125H329.719V43.7188H349.938V48.7188H329.719V70H324.25V23.125ZM356.312 26.7188C356.312 25.6771 356.646 24.8229 357.312 24.1562C358 23.4688 358.854 23.125 359.875 23.125C360.917 23.125 361.781 23.4688 362.469 24.1562C363.156 24.8229 363.5 25.6771 363.5 26.7188C363.5 27.7396 363.156 28.5938 362.469 29.2812C361.781 29.9688 360.917 30.3125 359.875 30.3125C358.854 30.3125 358 29.9688 357.312 29.2812C356.646 28.5938 356.312 27.7396 356.312 26.7188ZM357.312 70V38.75H362.5V70H357.312ZM371.5 70V38.75H376.156L376.438 43.5C377.667 41.8125 379.177 40.5 380.969 39.5625C382.76 38.6042 384.76 38.125 386.969 38.125C389.49 38.125 391.719 38.7396 393.656 39.9688C395.615 41.1771 397.146 42.8542 398.25 45C399.375 47.1458 399.938 49.6042 399.938 52.375V70H394.781V53C394.781 49.9583 393.958 47.5 392.312 45.625C390.688 43.75 388.562 42.8125 385.938 42.8125C384.167 42.8125 382.583 43.25 381.188 44.125C379.792 44.9792 378.688 46.1458 377.875 47.625C377.062 49.1042 376.656 50.7917 376.656 52.6875V70H371.5ZM407.312 60.6875C407.312 57.5625 408.521 55.0833 410.938 53.25C413.375 51.3958 416.656 50.4688 420.781 50.4688C423.573 50.4688 426.312 50.8958 429 51.75V51.375C429 48.7083 428.229 46.6146 426.688 45.0938C425.167 43.5729 423.073 42.8125 420.406 42.8125C417.719 42.8125 414.802 43.7083 411.656 45.5L409.781 41.1875C411.885 40.0833 413.792 39.3021 415.5 38.8438C417.208 38.3646 419.042 38.125 421 38.125C425 38.125 428.188 39.3438 430.562 41.7812C432.958 44.2188 434.156 47.4792 434.156 51.5625V70H429.5L429.219 65.375C428.177 67.0208 426.76 68.3125 424.969 69.25C423.177 70.1667 421.104 70.625 418.75 70.625C415.354 70.625 412.594 69.7083 410.469 67.875C408.365 66.0417 407.312 63.6458 407.312 60.6875ZM421.25 55.1562C418.542 55.1562 416.427 55.6458 414.906 56.625C413.385 57.5833 412.625 58.9375 412.625 60.6875C412.625 62.2708 413.229 63.5417 414.438 64.5C415.667 65.4583 417.292 65.9375 419.312 65.9375C421.146 65.9375 422.792 65.5521 424.25 64.7812C425.708 64.0104 426.865 62.9688 427.719 61.6562C428.573 60.3438 429 58.875 429 57.25V56.4062C426.458 55.5729 423.875 55.1562 421.25 55.1562ZM442.562 70V38.75H447.219L447.5 43.5C448.729 41.8125 450.24 40.5 452.031 39.5625C453.823 38.6042 455.823 38.125 458.031 38.125C460.552 38.125 462.781 38.7396 464.719 39.9688C466.677 41.1771 468.208 42.8542 469.312 45C470.438 47.1458 471 49.6042 471 52.375V70H465.844V53C465.844 49.9583 465.021 47.5 463.375 45.625C461.75 43.75 459.625 42.8125 457 42.8125C455.229 42.8125 453.646 43.25 452.25 44.125C450.854 44.9792 449.75 46.1458 448.938 47.625C448.125 49.1042 447.719 50.7917 447.719 52.6875V70H442.562ZM505.094 66C503.635 67.4583 501.917 68.5938 499.938 69.4062C497.958 70.2188 495.792 70.625 493.438 70.625C490.312 70.625 487.521 69.9271 485.062 68.5312C482.625 67.1146 480.698 65.1875 479.281 62.75C477.885 60.2917 477.188 57.5 477.188 54.375C477.188 51.25 477.885 48.4688 479.281 46.0312C480.698 43.5729 482.625 41.6458 485.062 40.25C487.521 38.8333 490.312 38.125 493.438 38.125C495.792 38.125 497.958 38.5312 499.938 39.3438C501.917 40.1562 503.635 41.2812 505.094 42.7188L501.5 46.3125C500.521 45.2083 499.344 44.3542 497.969 43.75C496.594 43.125 495.083 42.8125 493.438 42.8125C491.333 42.8125 489.458 43.3125 487.812 44.3125C486.167 45.3125 484.865 46.6875 483.906 48.4375C482.969 50.1667 482.5 52.1458 482.5 54.375C482.5 56.5833 482.969 58.5625 483.906 60.3125C484.865 62.0625 486.167 63.4375 487.812 64.4375C489.458 65.4375 491.333 65.9375 493.438 65.9375C495.083 65.9375 496.594 65.625 497.969 65C499.344 64.375 500.521 63.5208 501.5 62.4375L505.094 66ZM541.688 54.3438V56.4375H515.188C515.708 59.2083 517.042 61.4896 519.188 63.2812C521.354 65.0521 523.958 65.9375 527 65.9375C528.688 65.9375 530.469 65.6146 532.344 64.9688C534.219 64.3021 535.927 63.2396 537.469 61.7812L540.5 65.6562C538.229 67.5521 535.958 68.8542 533.688 69.5625C531.438 70.2708 529.26 70.625 527.156 70.625C523.781 70.625 520.781 69.9271 518.156 68.5312C515.531 67.1146 513.469 65.1667 511.969 62.6875C510.49 60.2083 509.75 57.3854 509.75 54.2188C509.75 51.1354 510.448 48.3854 511.844 45.9688C513.24 43.5312 515.156 41.6146 517.594 40.2188C520.031 38.8229 522.792 38.125 525.875 38.125C528.958 38.125 531.688 38.8229 534.062 40.2188C536.438 41.6146 538.302 43.5312 539.656 45.9688C541.01 48.4062 541.688 51.1979 541.688 54.3438ZM515.125 52.0625H536.312C535.854 49.3333 534.677 47.1146 532.781 45.4062C530.885 43.6771 528.573 42.8125 525.844 42.8125C523.073 42.8125 520.708 43.6875 518.75 45.4375C516.792 47.1667 515.583 49.375 515.125 52.0625Z" fill="#1A1918"/>
</svg>
