<svg width="51" height="48" viewBox="0 0 51 48" fill="none" xmlns="http://www.w3.org/2000/svg">
<path d="M3.88892 24L10.482 16.1336L0.372911 14.357L3.88892 24ZM6.1093 16.4234C6.71584 14.751 7.52414 13.1488 8.52293 11.654L7.04476 10.6663C5.96608 12.2807 5.09311 14.0111 4.43804 15.8173L6.1093 16.4234ZM8.52293 11.654C10.9647 7.9996 14.4354 5.15133 18.4959 3.46938L17.8156 1.82693C13.4302 3.64343 9.68191 6.71957 7.04476 10.6663L8.52293 11.654ZM18.4959 3.46938C22.5565 1.78743 27.0247 1.34736 31.3354 2.20481L31.6822 0.461191C27.0266 -0.464854 22.201 0.010425 17.8156 1.82693L18.4959 3.46938ZM31.3354 2.20481C35.6461 3.06226 39.6057 5.17872 42.7135 8.28655L43.9706 7.02947C40.6141 3.67301 36.3377 1.38724 31.6822 0.461191L31.3354 2.20481ZM42.7135 8.28655C45.8213 11.3944 47.9378 15.354 48.7952 19.6647L50.5389 19.3179C49.6128 14.6623 47.327 10.3859 43.9706 7.02947L42.7135 8.28655ZM48.7952 19.6647C49.6527 23.9754 49.2126 28.4435 47.5307 32.5041L49.1731 33.1844C50.9896 28.799 51.4649 23.9734 50.5389 19.3179L48.7952 19.6647ZM47.5307 32.5041C45.8487 36.5647 43.0005 40.0353 39.346 42.4771L40.3337 43.9553C44.2805 41.3181 47.3566 37.5699 49.1731 33.1844L47.5307 32.5041ZM39.346 42.4771C35.6916 44.9189 31.3952 46.2223 27 46.2222V48C31.7468 48 36.3869 46.5925 40.3337 43.9553L39.346 42.4771Z" fill="white"/>
<circle cx="27.0001" cy="24.0001" r="14.2222" stroke="white" stroke-width="1.77778"/>
<path d="M29.7798 19.8929C29.506 19.4998 29.1362 19.2152 28.6707 19.0389C28.2188 18.8492 27.7396 18.7543 27.2329 18.7543C26.9317 18.7543 26.6373 18.7882 26.3497 18.856C26.0759 18.9237 25.8226 19.0322 25.5898 19.1813C25.3707 19.3304 25.1927 19.5269 25.0558 19.7709C24.9188 20.0013 24.8504 20.2792 24.8504 20.6045C24.8504 21.0925 25.0215 21.4653 25.3638 21.7228C25.7062 21.9804 26.1306 22.204 26.6373 22.3938C27.1439 22.5836 27.6985 22.7665 28.301 22.9428C28.9035 23.119 29.458 23.363 29.9647 23.6747C30.4713 23.9865 30.8958 24.3999 31.2381 24.915C31.5804 25.4301 31.7516 26.1146 31.7516 26.9686C31.7516 27.7412 31.6078 28.4189 31.3203 29.0018C31.0327 29.5711 30.6425 30.0455 30.1495 30.4251C29.6703 30.8046 29.1089 31.0893 28.4653 31.279C27.8217 31.4688 27.1439 31.5637 26.4319 31.5637C25.5282 31.5637 24.6587 31.4146 23.8234 31.1164C22.9881 30.8182 22.2692 30.3166 21.6667 29.6118L23.618 27.7412C23.9329 28.2156 24.3437 28.5884 24.8504 28.8595C25.3707 29.117 25.9184 29.2458 26.4935 29.2458C26.7948 29.2458 27.096 29.2051 27.3972 29.1238C27.6985 29.0425 27.9723 28.9205 28.2188 28.7578C28.4653 28.5952 28.6638 28.3918 28.8145 28.1478C28.9651 27.8903 29.0404 27.5989 29.0404 27.2736C29.0404 26.7449 28.8692 26.3383 28.5269 26.0536C28.1846 25.769 27.7601 25.5317 27.2535 25.342C26.7468 25.1387 26.1923 24.9489 25.5898 24.7727C24.9873 24.5965 24.4327 24.3592 23.9261 24.061C23.4194 23.7493 22.995 23.3426 22.6526 22.8411C22.3103 22.326 22.1392 21.6415 22.1392 20.7875C22.1392 20.042 22.2898 19.3982 22.591 18.856C22.906 18.3138 23.3099 17.8664 23.8028 17.514C24.3095 17.148 24.8846 16.8769 25.5282 16.7007C26.1717 16.5245 26.829 16.4364 27.4999 16.4364C28.2667 16.4364 29.0062 16.5516 29.7182 16.7821C30.4439 17.0125 31.0943 17.392 31.6694 17.9207L29.7798 19.8929Z" fill="white"/>
<path d="M25.9334 31.1758H27.8728V34.6667H25.9334V31.1758Z" fill="white"/>
<path d="M25.9334 13.3334H27.8728V16.8243H25.9334V13.3334Z" fill="white"/>
</svg>
