<svg width="32" height="33" viewBox="0 0 32 33" fill="none" xmlns="http://www.w3.org/2000/svg">
<g clip-path="url(#clip0)">
<path d="M16 32.8004C7.2 32.8004 0 25.6004 0 16.8004C0 8.00038 7.2 0.800385 16 0.800385C24.8 0.800385 32 8.00038 32 16.8004C32 25.6004 24.8 32.8004 16 32.8004Z" fill="#002868"/>
<path d="M24.0639 26.4004H7.9359C7.0911 26.4004 6.3999 25.7092 6.3999 24.8644V8.73638C6.3999 7.89158 7.0911 7.20038 7.9359 7.20038H24.0639C24.9087 7.20038 25.5999 7.89158 25.5999 8.73638V24.8644C25.5999 25.7092 24.9087 26.4004 24.0639 26.4004Z" fill="white"/>
<path d="M10.1467 24.4676C10.0961 24.4676 10.0552 24.4215 10.0552 24.371V21.7911C10.0552 21.7406 10.0142 21.6945 9.96366 21.6945H9.05294C9.00174 21.6945 8.9563 21.6535 8.9563 21.603V21.1044C8.9563 21.0538 9.00238 21.0078 9.05294 21.0078H11.8561C11.9067 21.0078 11.9528 21.0532 11.9528 21.1044V21.603C11.9528 21.6535 11.9067 21.6945 11.8561 21.6945H10.9505C10.9 21.6945 10.8539 21.7399 10.8539 21.7911V24.371C10.8539 24.4215 10.8129 24.4676 10.7624 24.4676H10.1467Z" fill="#002868"/>
<path d="M14.7509 21.1044C14.7509 21.0538 14.7919 21.0078 14.8424 21.0078H15.453C15.5036 21.0078 15.5496 21.0532 15.5496 21.1044V22.865C15.5496 23.9083 14.9596 24.5137 14.0232 24.5137C13.092 24.5137 12.5071 23.9083 12.5071 22.865V21.1044C12.5071 21.0538 12.548 21.0078 12.5986 21.0078H13.2092C13.2597 21.0078 13.3058 21.0532 13.3058 21.1044V22.89C13.3058 23.4039 13.5701 23.77 14.0284 23.77C14.4866 23.77 14.7509 23.4039 14.7509 22.89V21.1044Z" fill="#002868"/>
<path d="M18.3534 22.1374C18.2722 22.1374 18.2466 22.1067 18.2159 22.0459C18.109 21.7963 17.8747 21.6388 17.5189 21.6388C17.1983 21.6388 16.9288 21.7508 16.9288 21.9646C16.9288 22.1988 17.1784 22.2955 17.7275 22.3614C18.5621 22.458 19.0402 22.7127 19.0402 23.3738C19.0402 24.1169 18.3886 24.5086 17.5547 24.5086C16.8322 24.5086 16.2114 24.1572 16.1148 23.4199C16.1045 23.3489 16.1404 23.3233 16.2114 23.3233H16.7714C16.8424 23.3233 16.8834 23.354 16.9039 23.4097C16.98 23.6542 17.2399 23.8423 17.6162 23.8423C17.9471 23.8423 18.237 23.7201 18.237 23.4609C18.237 23.1505 17.9317 23.0948 17.3211 23.018C16.6191 22.9265 16.1308 22.723 16.1308 22.0766C16.1308 21.4302 16.6856 20.9675 17.5554 20.9675C18.3387 20.9675 18.8834 21.3899 18.9954 22.0209C19.0107 22.0919 18.9902 22.138 18.9141 22.138H18.3534V22.1374Z" fill="#002868"/>
<path d="M19.7321 24.4676C19.6816 24.4676 19.6406 24.4215 19.6406 24.371V21.1044C19.6406 21.0538 19.6816 21.0078 19.7321 21.0078H21.1158C22.1437 21.0078 22.9424 21.715 22.9424 22.7479C22.9424 23.7655 22.1539 24.4676 21.1158 24.4676H19.7321ZM21.1158 23.7803C21.6707 23.7803 22.1027 23.3425 22.1027 22.737C22.1027 22.1316 21.6701 21.6938 21.1107 21.6938H20.536C20.4854 21.6938 20.4445 21.7393 20.4445 21.7905V23.6881C20.4445 23.7387 20.4854 23.7796 20.536 23.7796H21.1158V23.7803Z" fill="#002868"/>
<path d="M25.088 19.1044H6.91201C6.77121 19.1044 6.65601 18.9892 6.65601 18.8484V8.73639C6.65601 8.03239 7.23201 7.45639 7.93601 7.45639H24.064C24.768 7.45639 25.344 8.03239 25.344 8.73639V18.8484C25.344 18.9892 25.2288 19.1044 25.088 19.1044Z" fill="#002868"/>
<path d="M16.9427 17.0282H15.2787C15.1731 17.0282 15.0867 16.9418 15.0867 16.8362V9.79622C15.0867 9.69062 15.1731 9.60422 15.2787 9.60422H16.9427C17.0483 9.60422 17.1347 9.69062 17.1347 9.79622V16.8362C17.1347 16.9418 17.0483 17.0282 16.9427 17.0282Z" fill="white"/>
<path d="M19.776 11.6522H12.224C12.1184 11.6522 12.032 11.5658 12.032 11.4602V9.79622C12.032 9.69062 12.1184 9.60422 12.224 9.60422H19.776C19.8816 9.60422 19.968 9.69062 19.968 9.79622V11.4602C19.968 11.5658 19.8816 11.6522 19.776 11.6522Z" fill="white"/>
</g>
<defs>
<clipPath id="clip0">
<rect width="32" height="32" fill="white" transform="translate(0 0.800385)"/>
</clipPath>
</defs>
</svg>
