<svg width="32" height="33" viewBox="0 0 32 33" fill="none" xmlns="http://www.w3.org/2000/svg">
<g clip-path="url(#clip0)">
<path d="M16 32.6002C24.8667 32.6002 32 25.4669 32 16.6002C32 7.73347 24.8667 0.600189 16 0.600189C7.13328 0.600189 0 7.73347 0 16.6002C0 25.4669 7.13328 32.6002 16 32.6002Z" fill="#2775CA"/>
<path d="M20.4 19.1335C20.4 16.8002 19 16.0002 16.2 15.6669C14.2001 15.4002 13.8001 14.8669 13.8001 13.9335C13.8001 13 14.4668 12.4002 15.8 12.4002C17 12.4002 17.6668 12.8002 18 13.8002C18.0668 14.0002 18.2668 14.1335 18.4668 14.1335H19.5333C19.8 14.1335 20 13.9335 20 13.6669V13.6002C19.7333 12.1335 18.5333 11.0002 17 10.8669V9.26691C17 9.00019 16.8 8.80019 16.4668 8.73347H15.4668C15.2001 8.73347 15.0001 8.93347 14.9333 9.26691V10.8002C12.9333 11.0669 11.6668 12.4002 11.6668 14.0669C11.6668 16.2669 13.0001 17.1335 15.8 17.4669C17.6668 17.8002 18.2668 18.2002 18.2668 19.2669C18.2668 20.3337 17.3333 21.0669 16.0668 21.0669C14.3333 21.0669 13.7333 20.3335 13.5333 19.3335C13.4668 19.0669 13.2668 18.9335 13.0668 18.9335H11.9334C11.6668 18.9335 11.4668 19.1335 11.4668 19.4002V19.4669C11.7334 21.1335 12.8001 22.3335 15.0001 22.6669V24.2669C15.0001 24.5335 15.2001 24.7335 15.5333 24.8002H16.5333C16.8 24.8002 17 24.6002 17.0668 24.2669V22.6669C19.0667 22.3335 20.4 20.9335 20.4 19.1335Z" fill="white"/>
<path d="M12.6001 26.1335C7.40008 24.267 4.73336 18.467 6.6668 13.3335C7.6668 10.5335 9.8668 8.4002 12.6001 7.4002C12.8668 7.26691 13.0001 7.06691 13.0001 6.73347V5.80019C13.0001 5.53347 12.8668 5.33347 12.6001 5.26691C12.5334 5.26691 12.4001 5.26691 12.3334 5.33347C6.00008 7.33347 2.53336 14.0669 4.53336 20.4002C5.73336 24.1335 8.60008 27.0003 12.3334 28.2003C12.6001 28.3336 12.8668 28.2003 12.9334 27.9336C13.0001 27.867 13.0001 27.8003 13.0001 27.667V26.7336C13.0001 26.5336 12.8001 26.267 12.6001 26.1335ZM19.6668 5.33347C19.4001 5.20019 19.1334 5.33347 19.0668 5.60019C19.0001 5.66691 19.0001 5.73347 19.0001 5.86691V6.80019C19.0001 7.06691 19.2001 7.33348 19.4001 7.46692C24.6001 9.33348 27.2668 15.1335 25.3334 20.267C24.3334 23.067 22.1334 25.2003 19.4001 26.2003C19.1334 26.3335 19.0001 26.5336 19.0001 26.867V27.8003C19.0001 28.067 19.1334 28.267 19.4001 28.3336C19.4668 28.3336 19.6001 28.3336 19.6668 28.267C26.0001 26.267 29.4668 19.5335 27.4668 13.2002C26.2668 9.4002 23.3334 6.53347 19.6668 5.33347Z" fill="white"/>
</g>
<defs>
<clipPath id="clip0">
<rect width="32" height="32" fill="white" transform="translate(0 0.600189)"/>
</clipPath>
</defs>
</svg>
