<svg width="37" height="32" viewBox="0 0 37 32" fill="none" xmlns="http://www.w3.org/2000/svg">
<g clip-path="url(#clip0)">
<path fill-rule="evenodd" clip-rule="evenodd" d="M6.73542 0.157287L0.0280637 14.2461C0.00254031 14.2985 -0.0055479 14.3577 0.00498192 14.415C0.0155117 14.4723 0.0441072 14.5248 0.0865864 14.5647L18.2015 31.9232C18.253 31.9725 18.3215 32.0001 18.3928 32.0001C18.4641 32.0001 18.5326 31.9725 18.5841 31.9232L36.699 14.5658C36.7415 14.5259 36.7701 14.4734 36.7806 14.4161C36.7912 14.3588 36.7831 14.2996 36.7576 14.2472L30.0502 0.158371C30.0286 0.111055 29.9938 0.0709722 29.9499 0.0429132C29.9061 0.0148543 29.8551 6.00157e-06 29.8031 0.000143044H6.98468C6.9324 -0.000507385 6.88105 0.0139832 6.83682 0.0418668C6.79259 0.0697503 6.75737 0.109836 6.73542 0.157287Z" fill="#50AF95"/>
<path fill-rule="evenodd" clip-rule="evenodd" d="M20.7203 15.6929C20.5903 15.7026 19.9184 15.7427 18.4195 15.7427C17.2274 15.7427 16.381 15.707 16.084 15.6929C11.477 15.4902 8.03825 14.6882 8.03825 13.728C8.03825 12.7678 11.477 11.9669 16.084 11.761V14.8941C16.3853 14.9158 17.248 14.9668 18.4401 14.9668C19.8707 14.9668 20.587 14.9072 20.716 14.8952V11.7632C25.3133 11.968 28.7444 12.77 28.7444 13.728C28.7444 14.6861 25.3144 15.488 20.716 15.6918L20.7203 15.6929ZM20.7203 11.4391V8.63547H27.1361V4.36006H9.66822V8.63547H16.083V11.4381C10.869 11.6776 6.948 12.7104 6.948 13.948C6.948 15.1857 10.869 16.2174 16.083 16.458V25.4423H20.7192V16.4548C25.9213 16.2152 29.8358 15.1835 29.8358 13.9469C29.8358 12.7104 25.9245 11.6786 20.7192 11.4381L20.7203 11.4391Z" fill="white"/>
</g>
<defs>
<clipPath id="clip0">
<rect width="36.7859" height="32" fill="white"/>
</clipPath>
</defs>
</svg>
