<svg width="28" height="26" viewBox="0 0 28 26" fill="none" xmlns="http://www.w3.org/2000/svg">
<path d="M25.7328 1L15.6228 8.5L17.5028 4.08L25.7328 1Z" fill="#E17726" stroke="#E17726" stroke-linecap="round" stroke-linejoin="round"/>
<path d="M2.41284 1L12.4328 8.57L10.6428 4.08L2.41284 1Z" fill="#E27625" stroke="#E27625" stroke-linecap="round" stroke-linejoin="round"/>
<path d="M22.0928 18.3899L19.4028 22.5099L25.1628 24.0999L26.8128 18.4799L22.0928 18.3899Z" fill="#E27625" stroke="#E27625" stroke-linecap="round" stroke-linejoin="round"/>
<path d="M1.34277 18.4799L2.98277 24.0999L8.73277 22.5099L6.05277 18.3899L1.34277 18.4799Z" fill="#E27625" stroke="#E27625" stroke-linecap="round" stroke-linejoin="round"/>
<path d="M8.42275 11.43L6.82275 13.85L12.5228 14.11L12.3328 7.95996L8.42275 11.43Z" fill="#E27625" stroke="#E27625" stroke-linecap="round" stroke-linejoin="round"/>
<path d="M19.7228 11.4299L15.7528 7.88989L15.6228 14.1099L21.3228 13.8499L19.7228 11.4299Z" fill="#E27625" stroke="#E27625" stroke-linecap="round" stroke-linejoin="round"/>
<path d="M8.73267 22.51L12.1827 20.84L9.21267 18.52L8.73267 22.51Z" fill="#E27625" stroke="#E27625" stroke-linecap="round" stroke-linejoin="round"/>
<path d="M15.9626 20.84L19.4026 22.51L18.9326 18.52L15.9626 20.84Z" fill="#E27625" stroke="#E27625" stroke-linecap="round" stroke-linejoin="round"/>
<path d="M19.4029 22.5101L15.9629 20.8401L16.2429 23.0801L16.2129 24.0301L19.4029 22.5101Z" fill="#D5BFB2" stroke="#D5BFB2" stroke-linecap="round" stroke-linejoin="round"/>
<path d="M8.73291 22.5101L11.9329 24.0301L11.9129 23.0801L12.1829 20.8401L8.73291 22.5101Z" fill="#D5BFB2" stroke="#D5BFB2" stroke-linecap="round" stroke-linejoin="round"/>
<path d="M11.9928 17.04L9.13281 16.2L11.1528 15.27L11.9928 17.04Z" fill="#233447" stroke="#233447" stroke-linecap="round" stroke-linejoin="round"/>
<path d="M16.1528 17.04L16.9928 15.27L19.0228 16.2L16.1528 17.04Z" fill="#233447" stroke="#233447" stroke-linecap="round" stroke-linejoin="round"/>
<path d="M8.73273 22.5101L9.23273 18.3901L6.05273 18.4801L8.73273 22.5101Z" fill="#CC6228" stroke="#CC6228" stroke-linecap="round" stroke-linejoin="round"/>
<path d="M18.9128 18.3901L19.4028 22.5101L22.0928 18.4801L18.9128 18.3901Z" fill="#CC6228" stroke="#CC6228" stroke-linecap="round" stroke-linejoin="round"/>
<path d="M21.3228 13.8501L15.6228 14.1101L16.1528 17.0401L16.9928 15.2701L19.0228 16.2001L21.3228 13.8501Z" fill="#CC6228" stroke="#CC6228" stroke-linecap="round" stroke-linejoin="round"/>
<path d="M9.13275 16.2001L11.1528 15.2701L11.9928 17.0401L12.5228 14.1101L6.82275 13.8501L9.13275 16.2001Z" fill="#CC6228" stroke="#CC6228" stroke-linecap="round" stroke-linejoin="round"/>
<path d="M6.82275 13.8501L9.21275 18.5201L9.13275 16.2001L6.82275 13.8501Z" fill="#E27525" stroke="#E27525" stroke-linecap="round" stroke-linejoin="round"/>
<path d="M19.0229 16.2001L18.9329 18.5201L21.3229 13.8501L19.0229 16.2001Z" fill="#E27525" stroke="#E27525" stroke-linecap="round" stroke-linejoin="round"/>
<path d="M12.5227 14.1101L11.9927 17.0401L12.6627 20.5001L12.8127 15.9401L12.5227 14.1101Z" fill="#E27525" stroke="#E27525" stroke-linecap="round" stroke-linejoin="round"/>
<path d="M15.6228 14.1101L15.3428 15.9301L15.4828 20.5001L16.1528 17.0401L15.6228 14.1101Z" fill="#E27525" stroke="#E27525" stroke-linecap="round" stroke-linejoin="round"/>
<path d="M16.1529 17.04L15.4829 20.5L15.9629 20.84L18.9329 18.52L19.0229 16.2L16.1529 17.04Z" fill="#F5841F" stroke="#F5841F" stroke-linecap="round" stroke-linejoin="round"/>
<path d="M9.13281 16.2L9.21281 18.52L12.1828 20.84L12.6628 20.5L11.9928 17.04L9.13281 16.2Z" fill="#F5841F" stroke="#F5841F" stroke-linecap="round" stroke-linejoin="round"/>
<path d="M16.2129 24.03L16.2429 23.08L15.9829 22.86H12.1629L11.9129 23.08L11.9329 24.03L8.73291 22.51L9.85291 23.43L12.1229 25H16.0129L18.2929 23.43L19.4029 22.51L16.2129 24.03Z" fill="#C0AC9D" stroke="#C0AC9D" stroke-linecap="round" stroke-linejoin="round"/>
<path d="M15.9628 20.84L15.4828 20.5H12.6628L12.1828 20.84L11.9128 23.08L12.1628 22.86H15.9828L16.2428 23.08L15.9628 20.84Z" fill="#161616" stroke="#161616" stroke-linecap="round" stroke-linejoin="round"/>
<path d="M26.1629 8.99L27.0129 4.85L25.7329 1L15.9629 8.25L19.7229 11.43L25.0329 12.98L26.2029 11.61L25.6929 11.24L26.5029 10.5L25.8829 10.02L26.6929 9.4L26.1629 8.99Z" fill="#763E1A" stroke="#763E1A" stroke-linecap="round" stroke-linejoin="round"/>
<path d="M1.13281 4.85L1.99281 8.99L1.44281 9.4L2.26281 10.02L1.64281 10.5L2.45281 11.24L1.94281 11.61L3.11281 12.98L8.42281 11.43L12.1828 8.25L2.41281 1L1.13281 4.85Z" fill="#763E1A" stroke="#763E1A" stroke-linecap="round" stroke-linejoin="round"/>
<path d="M25.0329 12.9802L19.7229 11.4302L21.3229 13.8502L18.9329 18.5202L22.0929 18.4802H26.8129L25.0329 12.9802Z" fill="#F5841F" stroke="#F5841F" stroke-linecap="round" stroke-linejoin="round"/>
<path d="M8.42277 11.4302L3.11277 12.9802L1.34277 18.4802H6.05277L9.21277 18.5202L6.82277 13.8502L8.42277 11.4302Z" fill="#F5841F" stroke="#F5841F" stroke-linecap="round" stroke-linejoin="round"/>
<path d="M15.6228 14.1101L15.9628 8.25008L17.5028 4.08008H10.6428L12.1828 8.25008L12.5228 14.1101L12.6528 15.9501L12.6628 20.5001H15.4828L15.4928 15.9501L15.6228 14.1101Z" fill="#F5841F" stroke="#F5841F" stroke-linecap="round" stroke-linejoin="round"/>
</svg>
