<svg width="96" height="96" viewBox="0 0 96 96" fill="none" xmlns="http://www.w3.org/2000/svg">
<path d="M92 33L96 37L1.18021e-06 37L1.35505e-06 33L92 33Z" fill="#FFBF40"/>
<path d="M96 60L92 64H0L1.74846e-07 60L96 60Z" fill="#FFBF40"/>
<path d="M1.35505e-06 48L25.5 46.5L48 24V0L1.35505e-06 48Z" fill="#FFBF40"/>
<path d="M25.5 49.5L1.35505e-06 48L48 96L46.5 70.5L25.5 49.5Z" fill="#FFBF40"/>
<path d="M49.5 70.5L48 96L96 48L70.5 49.5L49.5 70.5Z" fill="#FFBF40"/>
<path d="M70.5 46.5L96 48L60 12V24L48 36V60L66 42L70.5 46.5Z" fill="#FFBF40"/>
</svg>
