<svg width="26" height="55" viewBox="0 0 26 55" fill="none" xmlns="http://www.w3.org/2000/svg">
<path d="M20.9165 16.9113C20.2105 15.8978 19.2573 15.164 18.057 14.7097C16.8921 14.2204 15.6565 13.9758 14.3503 13.9758C13.5737 13.9758 12.8147 14.0632 12.0733 14.2379C11.3673 14.4126 10.7142 14.6922 10.1141 15.0766C9.54922 15.461 9.09029 15.9677 8.73727 16.5968C8.38425 17.1909 8.20774 17.9073 8.20774 18.746C8.20774 20.004 8.64902 20.9651 9.53157 21.629C10.4141 22.293 11.5085 22.8696 12.8147 23.3589C14.1208 23.8481 15.5506 24.3199 17.1039 24.7742C18.6572 25.2285 20.0869 25.8575 21.3931 26.6613C22.6993 27.4651 23.7936 28.5309 24.6762 29.8589C25.5587 31.1868 26 32.9516 26 35.1532C26 37.1452 25.6293 38.8925 24.888 40.3952C24.1466 41.8629 23.1405 43.086 21.8697 44.0645C20.6341 45.043 19.1867 45.7769 17.5275 46.2661C15.8683 46.7554 14.1208 47 12.2851 47C9.95519 47 7.71351 46.6156 5.56008 45.8468C3.40665 45.078 1.55329 43.7849 0 41.9677L5.03055 37.1452C5.8425 38.3683 6.90156 39.3293 8.20774 40.0282C9.54922 40.6922 10.9613 41.0242 12.444 41.0242C13.2206 41.0242 13.9973 40.9194 14.7739 40.7097C15.5506 40.5 16.2566 40.1855 16.8921 39.7661C17.5275 39.3468 18.0394 38.8226 18.4277 38.1936C18.816 37.5296 19.0102 36.7782 19.0102 35.9395C19.0102 34.5766 18.5689 33.5282 17.6864 32.7944C16.8038 32.0605 15.7094 31.4489 14.4033 30.9597C13.0971 30.4355 11.6673 29.9462 10.1141 29.4919C8.56076 29.0376 7.13103 28.4261 5.82485 27.6573C4.51867 26.8535 3.4243 25.8051 2.54175 24.5121C1.6592 23.1841 1.21792 21.4194 1.21792 19.2177C1.21792 17.2957 1.60625 15.6358 2.38289 14.2379C3.19484 12.8401 4.23625 11.6868 5.50713 10.7782C6.81331 9.83467 8.29599 9.13575 9.95519 8.68145C11.6144 8.22715 13.3089 8 15.0387 8C17.0156 8 18.9219 8.29704 20.7576 8.89113C22.6286 9.48521 24.3055 10.4637 25.7882 11.8266L20.9165 16.9113Z" fill="#E673E6"/>
<path d="M11 46H16V55H11V46Z" fill="#E673E6"/>
<path d="M11 0H16V9H11V0Z" fill="#E673E6"/>
</svg>
